<?xml version="1.0" encoding="utf-8"?>
<!-- Generator: Adobe Illustrator 16.0.0, SVG Export Plug-In . SVG Version: 6.00 Build 0)  -->
<!DOCTYPE svg PUBLIC "-//W3C//DTD SVG 1.1//EN" "http://www.w3.org/Graphics/SVG/1.1/DTD/svg11.dtd">
<svg version="1.1" id="Layer_1" xmlns="http://www.w3.org/2000/svg" xmlns:xlink="http://www.w3.org/1999/xlink" x="0px" y="0px"
	 width="32px" height="32px" viewBox="0 0 32 32" enable-background="new 0 0 32 32" xml:space="preserve">
<path id="volume_3" d="M8.225,8.152v5.849h3.33l4.985,4.089l0.002-14.032l-4.985,4.093H8.225L8.225,8.152z M18.451,7.48
	c-0.291-0.288-0.756-0.288-1.049,0.002c-0.287,0.29-0.287,0.758,0.002,1.048V8.529c0.64,0.64,1.034,1.519,1.034,2.494
	c0,0.972-0.394,1.849-1.033,2.487c-0.292,0.29-0.292,0.757-0.001,1.051c0.143,0.145,0.332,0.217,0.523,0.217
	s0.386-0.073,0.525-0.217c0.904-0.904,1.465-2.16,1.465-3.537C19.92,9.641,19.356,8.384,18.451,7.48z M20.152,5.781
	c-0.293-0.29-0.757-0.29-1.048,0c-0.29,0.29-0.29,0.759,0,1.047c1.075,1.075,1.743,2.553,1.743,4.193
	c0,1.639-0.663,3.116-1.742,4.192c-0.293,0.288-0.293,0.756,0,1.047c0.139,0.143,0.334,0.218,0.525,0.218
	c0.189,0,0.385-0.075,0.523-0.218c1.342-1.341,2.176-3.196,2.176-5.239C22.324,8.979,21.493,7.119,20.152,5.781z M21.766,4.168
	c-0.294-0.29-0.758-0.288-1.047,0.001c-0.291,0.289-0.291,0.758,0.002,1.047h-0.002c1.488,1.488,2.404,3.535,2.404,5.806
	c0,2.268-0.916,4.317-2.402,5.805c-0.291,0.29-0.291,0.757,0.002,1.05c0.143,0.139,0.332,0.215,0.522,0.215
	c0.189,0,0.38-0.077,0.524-0.217c1.749-1.753,2.838-4.183,2.836-6.853C24.607,8.348,23.519,5.918,21.766,4.168z"/>
</svg>
